<?xml version="1.0" encoding="UTF-8" standalone="no"?>
<svg xmlns="http://www.w3.org/2000/svg" viewBox="0 0 1000 600">
  <!-- Sky gradient - dawn/battle sky -->
  <defs>
    <linearGradient id="battleSkyGradient" x1="0%" y1="0%" x2="0%" y2="100%">
      <stop offset="0%" style="stop-color:#1E3A8A;stop-opacity:1" />
      <stop offset="50%" style="stop-color:#7F1D1D;stop-opacity:1" />
      <stop offset="100%" style="stop-color:#78350F;stop-opacity:1" />
    </linearGradient>
  </defs>
  
  <!-- Sky -->
  <rect x="0" y="0" width="1000" height="600" fill="url(#battleSkyGradient)" />
  
  <!-- Smoke clouds -->
  <g opacity="0.5">
    <ellipse cx="200" cy="200" rx="100" ry="40" fill="#1F2937" />
    <ellipse cx="500" cy="150" rx="120" ry="50" fill="#1F2937" />
    <ellipse cx="800" cy="180" rx="90" ry="35" fill="#1F2937" />
    <ellipse cx="300" cy="220" rx="80" ry="30" fill="#1F2937" />
    <ellipse cx="650" cy="190" rx="110" ry="45" fill="#1F2937" />
  </g>
  
  <!-- Distant castle silhouettes -->
  <path d="M 100,350 L 100,300 L 120,300 L 120,280 L 140,280 L 160,280 L 160,300 L 180,300 L 180,350 Z" fill="#1E293B" />
  <rect x="80" y="350" width="120" height="50" fill="#1E293B" />

  <path d="M 800,320 L 800,270 L 820,270 L 820,250 L 840,250 L 860,250 L 860,270 L 880,270 L 880,320 Z" fill="#1E293B" />
  <rect x="780" y="320" width="120" height="50" fill="#1E293B" />
  
  <!-- Battlefield -->
  <rect x="0" y="400" width="1000" height="200" fill="#422006" />
  
  <!-- Battlefield details - random elements -->
  <g>
    <!-- Rocks -->
    <ellipse cx="150" cy="450" rx="10" ry="5" fill="#6B7280" />
    <ellipse cx="350" cy="460" rx="15" ry="7" fill="#6B7280" />
    <ellipse cx="550" cy="470" rx="12" ry="6" fill="#6B7280" />
    <ellipse cx="750" cy="455" rx="8" ry="4" fill="#6B7280" />
    <ellipse cx="850" cy="465" rx="14" ry="6" fill="#6B7280" />
    
    <!-- Fallen weapons -->
    <line x1="200" y1="460" x2="230" y2="450" stroke="#9CA3AF" stroke-width="2" />
    <line x1="600" y1="465" x2="630" y2="455" stroke="#9CA3AF" stroke-width="2" />
    <line x1="400" y1="458" x2="420" y2="470" stroke="#9CA3AF" stroke-width="2" />
    <line x1="800" y1="462" x2="820" y2="472" stroke="#9CA3AF" stroke-width="2" />
    
    <!-- Blood patches - subtle -->
    <ellipse cx="100" cy="460" rx="15" ry="5" fill="#7F1D1D" opacity="0.3" />
    <ellipse cx="450" cy="465" rx="20" ry="8" fill="#7F1D1D" opacity="0.3" />
    <ellipse cx="700" cy="455" rx="18" ry="6" fill="#7F1D1D" opacity="0.3" />
    <ellipse cx="900" cy="470" rx="22" ry="7" fill="#7F1D1D" opacity="0.3" />
  </g>
  
  <!-- Distant burning elements -->
  <g>
    <circle cx="280" cy="380" r="10" fill="#F59E0B" />
    <circle cx="280" cy="370" r="7" fill="#FEF3C7" />
    
    <circle cx="520" cy="360" r="12" fill="#F59E0B" />
    <circle cx="520" cy="348" r="8" fill="#FEF3C7" />
    
    <circle cx="720" cy="370" r="9" fill="#F59E0B" />
    <circle cx="720" cy="361" r="6" fill="#FEF3C7" />
  </g>
  
  <!-- Fog of war - slight overlay -->
  <rect x="0" y="0" width="1000" height="600" fill="#1F2937" opacity="0.2" />
  
  <!-- Sun/fireball in the sky -->
  <circle cx="500" cy="120" r="50" fill="#F97316" opacity="0.7" />
  <circle cx="500" cy="120" r="40" fill="#FBBF24" opacity="0.8" />
</svg> 