<?xml version="1.0" encoding="UTF-8" standalone="no"?>
<svg xmlns="http://www.w3.org/2000/svg" viewBox="0 0 100 100">
  <!-- Ground/Base -->
  <ellipse cx="50" cy="85" rx="40" ry="5" fill="#6B7280" opacity="0.2"/>
  
  <!-- Main House -->
  <rect x="40" y="45" width="30" height="35" fill="#A16207" stroke="#CA8A04" stroke-width="2"/>
  
  <!-- Roof -->
  <path d="M 35,45 L 55,20 L 75,45" fill="#CA8A04" stroke="#A16207" stroke-width="2"/>
  
  <!-- Windows -->
  <rect x="45" y="50" width="8" height="8" fill="#FBBF24" opacity="0.5" stroke="#A16207" stroke-width="1"/>
  <rect x="57" y="50" width="8" height="8" fill="#FBBF24" opacity="0.5" stroke="#A16207" stroke-width="1"/>
  <rect x="45" y="63" width="8" height="8" fill="#FBBF24" opacity="0.5" stroke="#A16207" stroke-width="1"/>
  <rect x="57" y="63" width="8" height="8" fill="#FBBF24" opacity="0.5" stroke="#A16207" stroke-width="1"/>
  
  <!-- Door -->
  <path d="M 50,80 L 50,68 Q 55,60 60,68 L 60,80 Z" fill="#78350F" stroke="#A16207" stroke-width="1"/>
  <circle cx="52" cy="74" r="1" fill="#FBBF24"/>
  
  <!-- Chimney -->
  <rect x="70" y="30" width="5" height="15" fill="#78350F" stroke="#A16207" stroke-width="1"/>
  <path d="M 70,30 C 73,25 70,20 73,15" fill="none" stroke="#9CA3AF" strokeWidth="1" strokeDasharray="1,2"/>
  
  <!-- Small Market Stall -->
  <rect x="15" y="60" width="15" height="20" fill="#A16207" stroke="#CA8A04" stroke-width="1"/>
  <path d="M 10,60 L 23,50 L 35,60" fill="#CA8A04" stroke="#A16207" stroke-width="1"/>
  <line x1="15" y1="65" x2="30" y2="65" stroke="#78350F" stroke-width="1"/>
  
  <!-- Fence -->
  <path d="M 75,80 L 75,70 L 85,70 L 85,80" stroke="#A16207" stroke-width="1" fill="none"/>
  <line x1="75" y1="75" x2="85" y2="75" stroke="#A16207" stroke-width="1"/>
  <line x1="80" y1="70" x2="80" y2="80" stroke="#A16207" stroke-width="1"/>
</svg> 