<?xml version="1.0" encoding="UTF-8" standalone="no"?>
<svg xmlns="http://www.w3.org/2000/svg" viewBox="0 0 100 100">
  <!-- Castle base -->
  <rect x="20" y="40" width="60" height="50" fill="#3B82F6" stroke="#60A5FA" stroke-width="2"/>
  
  <!-- Castle towers -->
  <rect x="15" y="35" width="15" height="55" fill="#3B82F6" stroke="#60A5FA" stroke-width="2"/>
  <rect x="70" y="35" width="15" height="55" fill="#3B82F6" stroke="#60A5FA" stroke-width="2"/>
  
  <!-- Castle battlements -->
  <path d="M 15,35 L 15,30 L 20,30 L 20,35 L 25,35 L 25,30 L 30,30 L 30,35" fill="#3B82F6" stroke="#60A5FA" stroke-width="2"/>
  <path d="M 70,35 L 70,30 L 75,30 L 75,35 L 80,35 L 80,30 L 85,30 L 85,35" fill="#3B82F6" stroke="#60A5FA" stroke-width="2"/>
  <path d="M 20,40 L 20,35 L 25,35 L 25,40 L 30,40 L 30,35 L 35,35 L 35,40 L 40,40 L 40,35 L 45,35 L 45,40 L 50,40 L 50,35 L 55,35 L 55,40 L 60,40 L 60,35 L 65,35 L 65,40 L 70,40 L 70,35 L 75,35 L 75,40 L 80,40" fill="#3B82F6" stroke="#60A5FA" stroke-width="2"/>
  
  <!-- Castle gate -->
  <rect x="40" y="65" width="20" height="25" fill="#60A5FA" stroke="#93C5FD" stroke-width="2"/>
  <path d="M 40,65 Q 50,55 60,65" fill="none" stroke="#93C5FD" stroke-width="2"/>
  
  <!-- Windows -->
  <rect x="25" y="50" width="10" height="15" rx="5" ry="5" fill="#93C5FD" opacity="0.7"/>
  <rect x="65" y="50" width="10" height="15" rx="5" ry="5" fill="#93C5FD" opacity="0.7"/>
  
  <!-- Earth element symbol -->
  <rect x="45" y="20" width="10" height="10" fill="#84CC16" stroke="#65A30D" stroke-width="1"/>
  
  <!-- Flag on top -->
  <path d="M 50,20 L 50,10 L 60,15 L 50,20" fill="#84CC16"/>
  <line x1="50" y1="10" x2="50" y2="30" stroke="#65A30D" stroke-width="1"/>
</svg> 