<?xml version="1.0" encoding="UTF-8" standalone="no"?>
<svg xmlns="http://www.w3.org/2000/svg" viewBox="0 0 100 100">
  <!-- Ground/Base -->
  <ellipse cx="50" cy="85" rx="40" ry="5" fill="#6B7280" opacity="0.2"/>
  
  <!-- Main House -->
  <rect x="30" y="50" width="40" height="30" fill="#92400E" stroke="#B45309" stroke-width="2"/>
  
  <!-- Roof -->
  <path d="M 25,50 L 50,30 L 75,50" fill="#B45309" stroke="#92400E" stroke-width="2"/>
  
  <!-- Windows -->
  <rect x="35" y="55" width="10" height="10" fill="#FBBF24" opacity="0.5" stroke="#92400E" stroke-width="1"/>
  <rect x="55" y="55" width="10" height="10" fill="#FBBF24" opacity="0.5" stroke="#92400E" stroke-width="1"/>
  
  <!-- Door -->
  <rect x="45" y="65" width="10" height="15" fill="#78350F" stroke="#92400E" stroke-width="1"/>
  <circle cx="47" cy="73" r="1" fill="#FBBF24"/>
  
  <!-- Chimney -->
  <rect x="65" y="35" width="5" height="15" fill="#78350F" stroke="#92400E" stroke-width="1"/>
  <path d="M 65,35 C 68,30 65,25 68,20" fill="none" stroke="#9CA3AF" strokeWidth="1" strokeDasharray="1,2"/>
  
  <!-- Small shed -->
  <rect x="15" y="65" width="10" height="15" fill="#92400E" stroke="#B45309" stroke-width="1"/>
  <path d="M 10,65 L 20,58 L 30,65" fill="#B45309" stroke="#92400E" stroke-width="1"/>
  
  <!-- Well -->
  <circle cx="80" cy="70" r="5" fill="#9CA3AF" stroke="#6B7280" stroke-width="1"/>
  <path d="M 75,70 L 85,70" stroke="#6B7280" stroke-width="1"/>
  <path d="M 80,65 L 80,63 L 75,60 L 85,60 L 80,63" stroke="#6B7280" stroke-width="1" fill="#9CA3AF"/>
</svg> 